<svg xmlns="http://www.w3.org/2000/svg" width="120" height="120" viewBox="0 0 120 120">
  <defs>
    <linearGradient id="cover" x1="0" y1="0" x2="1" y2="1"><stop stop-color="#81d7dc"/><stop offset="1" stop-color="#388cab"/></linearGradient>
    <linearGradient id="pages" x1="0" y1="0" x2="0" y2="1"><stop stop-color="#fffde8"/><stop offset="1" stop-color="#dcebdc"/></linearGradient>
    <linearGradient id="brass" x1="0" y1="0" x2="1" y2="1"><stop stop-color="#ffe89a"/><stop offset="1" stop-color="#dba64c"/></linearGradient>
  </defs>
  <path d="M27 16 88 12 101 21 101 97 91 108 27 106 17 95 17 27Z" fill="#467d86" opacity=".22" transform="translate(0 4)"/>
  <path d="M27 16 88 12 101 21 101 97 91 108 27 106 17 95 17 27Z" fill="url(#cover)" stroke="#fffef7" stroke-width="10" stroke-linejoin="round"/>
  <path d="M27 16 88 12 99 21 99 96 90 104 27 103Q19 101 19 94V27Q19 18 27 16Z" fill="url(#cover)" stroke="#5c8394" stroke-width="2"/>
  <path d="M28 91 89 88 94 94 89 101 29 101Q22 100 22 95Q22 91 28 91Z" fill="url(#pages)" stroke="#719d9b" stroke-width="1.5"/>
  <path d="m32 95 54-3m-54 7 54-3" stroke="#a9c7b7" stroke-width="1.3"/>
  <path d="M28 17 29 89M35 23 84 20 90 26 90 82 36 86Z" fill="none" stroke="#daf4e6" stroke-width="1.5" stroke-dasharray="3 3"/>
  <path d="M52 93v19l7-5 7 4V92" fill="#ec9c75" stroke="#bd8163" stroke-width="1.5"/>
  <path d="M27 17v73" stroke="#23768e" stroke-width="3"/>
  <path d="M87 53h15v20H87Q82 64 87 53Z" fill="#c88b50" stroke="#fff2cf" stroke-width="2"/>
  <rect x="86" y="58" width="11" height="11" rx="2" fill="url(#brass)" stroke="#a5793b" stroke-width="1.5"/>
  <circle cx="61" cy="53" r="19" fill="#eef8dc" stroke="#f7e5a4" stroke-width="3"/>
  <path d="m65 39 4 18-15 10 2-18Z" fill="#df9d66" stroke="#9f8563" stroke-width="1.5" stroke-linejoin="round"/>
  <path d="m65 39-9 10 5 6Z" fill="#80c4c2"/>
  <circle cx="61" cy="54" r="3" fill="url(#brass)"/>
  <path d="M46 78h29" stroke="#bde4d7" stroke-width="2" stroke-linecap="round"/>
</svg>
