<svg xmlns="http://www.w3.org/2000/svg" width="120" height="120" viewBox="0 0 120 120"><defs>
<pattern id="fibers" width="47" height="39" patternUnits="userSpaceOnUse"><path d="M4 8h8m18 16h7M9 33h5M37 5h4" stroke="#65a0a5" stroke-opacity=".07" stroke-width=".7"/><path d="M17 17h3M30 35h6" stroke="#fff" stroke-opacity=".6"/><circle cx="22" cy="7" r=".7" fill="#64a8ad" opacity=".11"/></pattern>
<pattern id="linen" width="8" height="8" patternUnits="userSpaceOnUse"><path d="M0 1h8M1 0v8" stroke="#fbf3d7" stroke-width=".5" opacity=".1"/></pattern>
<linearGradient id="paper" x1="0" y1="0" x2="0" y2="1"><stop stop-color="#fffef4"/><stop offset="1" stop-color="#eaf4ec"/></linearGradient>
<linearGradient id="leather" x1="0" y1="0" x2="1" y2="1"><stop stop-color="#e9a564"/><stop offset="1" stop-color="#a86739"/></linearGradient>
<linearGradient id="green" x1="0" y1="0" x2="0" y2="1"><stop stop-color="#74cdd4"/><stop offset="1" stop-color="#3687b2"/></linearGradient>
<linearGradient id="gold" x1="0" y1="0" x2="1" y2="1"><stop stop-color="#fff0a3"/><stop offset=".4" stop-color="#f5c857"/><stop offset="1" stop-color="#ce9434"/></linearGradient>
</defs><path d="M25 19L58 11L75 22L100 18L107 96L78 106L58 95L24 106L16 39Z" fill="#55798e" stroke="none" stroke-width="0" stroke-linejoin="round" transform="translate(0 5)" opacity=".24"/><path d="M25 19L58 11L75 22L100 18L107 96L78 106L58 95L24 106L16 39Z" fill="url(#paper)" stroke="#ffffff" stroke-width="12" stroke-linejoin="round" /><path d="M25 19L58 11L75 22L100 18L107 96L78 106L58 95L24 106L16 39Z" fill="url(#paper)" stroke="#7194a1" stroke-width="2" stroke-linejoin="round" /><path d="M25 19L58 11L75 22L100 18L107 96L78 106L58 95L24 106L16 39Z" fill="url(#fibers)" stroke="none" stroke-width="0" stroke-linejoin="round" /><path d="M58 17v73m18-62l2 71" fill="none" stroke="#86bfc2" stroke-width="2" stroke-linejoin="round" /><path d="M35 42Q49 29 57 48Q65 62 82 47L91 58L88 79" fill="none" stroke="#78adbc" stroke-width="3" stroke-linejoin="round" stroke-dasharray="4 4"/><path d="M33 73l8-11l7 11m34-43l5-7l7 7" fill="none" stroke="#52a895" stroke-width="2" stroke-linejoin="round" /><path d="M89 71l5 11l-12-3Z" fill="#eb8e6c" stroke="#fff8de" stroke-width="2" stroke-linejoin="round" /></svg>