<svg xmlns="http://www.w3.org/2000/svg" width="250" height="86" viewBox="0 0 250 86"><defs>
<pattern id="fibers" width="47" height="39" patternUnits="userSpaceOnUse"><path d="M4 8h8m18 16h7M9 33h5M37 5h4" stroke="#65a0a5" stroke-opacity=".07" stroke-width=".7"/><path d="M17 17h3M30 35h6" stroke="#fff" stroke-opacity=".6"/><circle cx="22" cy="7" r=".7" fill="#64a8ad" opacity=".11"/></pattern>
<pattern id="linen" width="8" height="8" patternUnits="userSpaceOnUse"><path d="M0 1h8M1 0v8" stroke="#fbf3d7" stroke-width=".5" opacity=".1"/></pattern>
<linearGradient id="paper" x1="0" y1="0" x2="0" y2="1"><stop stop-color="#fffef4"/><stop offset="1" stop-color="#eaf4ec"/></linearGradient>
<linearGradient id="leather" x1="0" y1="0" x2="1" y2="1"><stop stop-color="#e9a564"/><stop offset="1" stop-color="#a86739"/></linearGradient>
<linearGradient id="green" x1="0" y1="0" x2="0" y2="1"><stop stop-color="#74cdd4"/><stop offset="1" stop-color="#3687b2"/></linearGradient>
<linearGradient id="gold" x1="0" y1="0" x2="1" y2="1"><stop stop-color="#fff0a3"/><stop offset=".4" stop-color="#f5c857"/><stop offset="1" stop-color="#ce9434"/></linearGradient>
</defs><path d="M15 25L4 16L9 68L30 64M223 23L245 15L240 72L219 63" fill="#72a7bc" stroke="#ffffff" stroke-width="5" stroke-linejoin="round" /><path d="M19 17L64 10L130 15L213 11L236 25L228 68L150 73L91 69L22 75L13 55Z" fill="#55798e" stroke="none" stroke-width="0" stroke-linejoin="round" transform="translate(0 5)" opacity=".24"/><path d="M19 17L64 10L130 15L213 11L236 25L228 68L150 73L91 69L22 75L13 55Z" fill="url(#paper)" stroke="#ffffff" stroke-width="12" stroke-linejoin="round" /><path d="M19 17L64 10L130 15L213 11L236 25L228 68L150 73L91 69L22 75L13 55Z" fill="url(#paper)" stroke="#7194a1" stroke-width="2" stroke-linejoin="round" /><path d="M19 17L64 10L130 15L213 11L236 25L228 68L150 73L91 69L22 75L13 55Z" fill="url(#fibers)" stroke="none" stroke-width="0" stroke-linejoin="round" /><path d="M29 25L63 21L130 26L210 21L225 29L217 58L151 63L92 59L33 64L24 51Z" fill="none" stroke="#91c4c7" stroke-width="1.5" stroke-linejoin="round" stroke-dasharray="4 5" stroke-linecap="round"/><path d="M22 32l12 0m-9-5v10M225 47l-10 0m7-5v10" fill="none" stroke="#69a5b5" stroke-width="1.8" stroke-linejoin="round" /></svg>